<svg xmlns="http://www.w3.org/2000/svg" viewBox="0 0 84 84"><defs><linearGradient id="A" gradientUnits="userSpaceOnUse" x1="0" y1="41.986" x2="84.028" y2="41.986"><stop offset="0" stop-color="#4f81f4"/><stop offset="1" stop-color="#0fe4e7"/></linearGradient></defs><path d="M48.6-.03L0 48.58V84L84.03-.03z" fill="url(#A)"/><path d="M12.53 56.46l2-2-3.72-1.7 1.7 3.72zm-.18 7.3L7.06 51.2l2.24-2.24 12.52 5.3-2.42 2.42-2.47-1.14-3.28 3.28 1.14 2.47-2.44 2.44zm5.35-23.5c1.16-1.17 2.63-1.95 4.43-2.33l.63 2.57c-1.2.23-2.13.68-2.8 1.36-.78.78-1.15 1.65-1.14 2.65.01.96.42 1.85 1.22 2.65.8.8 1.68 1.2 2.67 1.23.98 0 1.85-.37 2.63-1.15.68-.68 1.13-1.6 1.36-2.8l2.57.63c-.38 1.8-1.17 3.26-2.33 4.43-2.7 2.8-6.76 2.85-9.38.15-2.7-2.63-2.64-6.67.15-9.38zm6.63-2.6l-1.86-1.86 7.58-7.6 1.86 1.86-2.57 2.57 7.05 7.06-2.42 2.43-7.06-7.06-2.58 2.6zM40.5 35.6l-8.9-8.92 2.43-2.42 8.9 8.9-2.43 2.43zm-5.32-12.5l2.54-2.53 8.2 3.8-3.78-8.2 2.52-2.52 5.3 12.52-2.24 2.24-12.54-5.3zm19.55-1.72l-8.9-8.9L52.3 6l1.8 1.8-4.03 4.04 1.67 1.66 3.6-3.6 1.75 1.75-3.6 3.6 1.88 1.9 4.25-4.24 1.8 1.8-6.67 6.67z" fill="#130f31"/></svg>